<svg width="129" height="233" viewBox="0 0 129 233" fill="none" xmlns="http://www.w3.org/2000/svg">
<path d="M26.525 207.653C27.702 208.131 28.0518 208.479 28.5349 208.581C61.2631 208.79 88.8659 198.905 109.378 176.589C114.574 170.968 117.96 164.048 119.613 156.35C123.315 139.895 115.179 122.762 99.128 112.961C90.7885 107.811 81.994 104.165 72.2338 104.293C69.747 107.562 67.3989 110.906 64.7676 113.779C60.4487 118.443 54.8583 121.146 47.7019 120.773C42.4054 120.612 38.2413 118.359 37.0862 115.187C35.5701 111.025 37.4352 107.579 40.7716 105.725C45.4016 103.139 50.4536 101.099 55.5112 99.3804C58.7922 98.2919 62.5674 97.9481 66.065 97.4541C71.2322 82.2693 59.5775 68.3236 38.6798 64.4928C37.0589 66.1616 35.3713 67.9534 33.6115 69.547C26.9054 75.3062 18.7723 78.0652 9.04521 76.1426C5.31984 75.3994 1.64988 73.8906 0.27259 69.8036C-0.743723 66.7075 1.12136 63.2614 5.2073 61.0171C11.747 57.5549 19.2253 56.6692 26.8536 56.5012C29.5351 56.5203 32.2167 56.5394 34.8316 56.6816C43.7122 33.6406 30.1795 6.58498 4.14095 3.63179C5.14568 2.10691 5.73957 0.677927 6.69445 0.239945C7.85473 -0.245994 9.64802 0.0880266 11.0305 0.517959C23.8946 4.934 34.194 12.0993 39.0865 24.613C42.8239 33.9555 43.6743 43.3268 42.465 52.8565C42.2819 54.1895 42.0989 55.5226 42.0546 56.9308C41.988 57.0538 42.199 57.3271 42.5543 57.9969C43.8702 58.5499 45.397 59.3762 47.0571 59.9564C67.0557 67.438 74.3741 77.1272 74.6537 97.1694C76.5858 97.5785 78.7955 98.1379 80.933 98.4991C93.3528 101.083 104.174 106.622 113.269 115.681C128.099 130.391 132.221 149.966 124.278 167.627C119.976 177.233 113.376 185.118 104.966 191.705C84.5475 207.548 60.6975 215.804 32.4162 214.342C30.9727 214.356 29.457 214.173 28.0136 214.187C27.8081 214.235 27.5361 214.406 26.72 214.919C30.9065 218.458 35.5481 220.492 40.1231 222.65C44.4926 224.856 49.1341 226.89 53.9867 229.198C51.8385 232.173 49.2291 232.352 46.4698 231.814C43.294 231.05 39.9851 230.532 37.1424 229.152C29.5137 225.342 21.8129 221.334 14.3785 216.833C8.60972 213.233 8.47608 209.501 13.4447 206.621C24.0648 200.593 34.8237 194.64 45.5826 188.687C47.3535 187.736 49.2689 187.182 51.7282 186.285C52.9001 190.42 50.7239 191.788 48.7532 193.109C41.2697 197.651 34.2027 202.42 26.525 207.653ZM6.43501 68.3649C16.612 72.4405 25.5114 70.2553 30.0576 62.8499C21.6743 63.0866 13.7685 63.1044 6.43501 68.3649ZM43.0264 112.833C52.1484 115.542 58.6993 112.722 61.9297 104.764C54.5236 105.848 47.9448 107.061 43.0264 112.833Z" fill="black"/>
</svg>
