<svg width="70" height="62" viewBox="0 0 70 62" fill="none" xmlns="http://www.w3.org/2000/svg">
<path d="M35.2352 2.50004C21.1238 2.45069 4.72188 49.0252 14.9798 57.3085C25.7455 66.0018 70.586 36.3236 67.0649 23.9468C63.4435 11.2173 6.8886 10.549 3.06496 22.9256C-0.683517 35.0588 44.3546 65.8528 55.15 57.3085C65.3534 49.2329 49.3458 2.54939 35.2352 2.50004Z" stroke="white" stroke-width="5" stroke-miterlimit="10"/>
<path d="M27.6254 27.3574H25.3746C25.1677 27.3574 25 27.5252 25 27.7321V40.9601C25 41.167 25.1677 41.3347 25.3746 41.3347H27.6254C27.8323 41.3347 28 41.167 28 40.9601V27.7321C28 27.5252 27.8323 27.3574 27.6254 27.3574Z" fill="white"/>
<path d="M31.9955 31.4114H29.7281C29.5258 31.4114 29.3618 31.5754 29.3618 31.7777V36.9146C29.3618 37.1169 29.5258 37.2809 29.7281 37.2809H31.9955C32.1978 37.2809 32.3618 37.1169 32.3618 36.9146V31.7777C32.3618 31.5754 32.1978 31.4114 31.9955 31.4114Z" fill="white"/>
<path d="M36.3722 28.6008H34.1068C33.904 28.6008 33.7395 28.7653 33.7395 28.9682V39.7241C33.7395 39.9269 33.904 40.0914 34.1068 40.0914H36.3722C36.575 40.0914 36.7395 39.9269 36.7395 39.7241V28.9682C36.7395 28.7653 36.575 28.6008 36.3722 28.6008Z" fill="white"/>
<path d="M41.0205 25H38.751C38.5493 25 38.3857 25.1635 38.3857 25.3653V43.327C38.3857 43.5288 38.5493 43.6923 38.751 43.6923H41.0205C41.2222 43.6923 41.3857 43.5288 41.3857 43.327V25.3653C41.3857 25.1635 41.2222 25 41.0205 25Z" fill="white"/>
<path d="M45.4527 31.251H43.186C42.9835 31.251 42.8193 31.4151 42.8193 31.6177V37.0744C42.8193 37.2769 42.9835 37.4411 43.186 37.4411H45.4527C45.6552 37.4411 45.8193 37.2769 45.8193 37.0744V31.6177C45.8193 31.4151 45.6552 31.251 45.4527 31.251Z" fill="white"/>
</svg>
