<svg width="289" height="68" viewBox="0 0 289 68" fill="none" xmlns="http://www.w3.org/2000/svg">
<g clip-path="url(#clip0_160_174)">
<path d="M36.3838 22.4365C41.8877 22.4365 44.6401 26.7886 44.6401 35.4922V47.3003H35.4722V35.9243C35.4722 33.6523 35.272 32.1802 34.8721 31.5083C34.4717 30.8364 33.6479 30.5005 32.3999 30.5005C30.6074 30.5005 29.4639 31.189 28.9678 32.5645C28.4717 33.9404 28.2241 36.2603 28.2241 39.5244V47.3003H18.96L19.0562 47.1089V35.9243C19.0562 33.6523 18.856 32.1802 18.4561 31.5083C18.0557 30.8364 17.2319 30.5005 15.9839 30.5005C14.1914 30.5005 13.0479 31.189 12.5518 32.5645C12.0557 33.9404 11.8081 36.2603 11.8081 39.5244V47.3003H2.64014V22.9165H11.8081V24.6924L10.0322 29.6841H12.2881C12.7993 27.3486 13.6558 25.5562 14.856 24.3081C16.0562 23.0601 17.7598 22.4365 19.9678 22.4365C22.1758 22.4365 23.8394 23.0767 24.96 24.3564C26.0796 25.6367 26.8154 27.4282 27.168 29.7324L27.2158 29.6841H28.7998C29.3115 27.3486 30.1514 25.5562 31.3198 24.3081C32.4878 23.0601 34.1758 22.4365 36.3838 22.4365Z" fill="white"/>
<path d="M46.5601 34.8203C46.5601 31.0449 47.7837 28.0366 50.2319 25.7964C52.6797 23.5566 55.8877 22.4365 59.856 22.4365C63.792 22.4365 67.0156 23.5405 69.5278 25.7485C72.0396 27.9561 73.2959 30.8047 73.2959 34.2925V36.6445H55.104C55.0396 37.8921 55.4956 38.8848 56.4717 39.6201C57.4478 40.3569 58.8638 40.7241 60.7197 40.7241C61.7759 40.7241 62.7119 40.5249 63.5278 40.1245C64.3438 39.7246 64.8315 39.2363 64.9917 38.6602H74.1597C74.0952 39.5889 73.7593 40.5562 73.1519 41.5645C72.5435 42.5728 71.7119 43.5493 70.6558 44.4927C69.6001 45.437 68.1997 46.2202 66.4561 46.8442C64.7114 47.4683 62.7998 47.7808 60.7197 47.7808C56.1436 47.7808 52.6392 46.5405 50.208 44.0601C47.7754 41.5806 46.5601 38.5005 46.5601 34.8203ZM55.104 32.7563H64.752C64.752 30.8364 63.1201 29.8765 59.856 29.8765C58.0317 29.8765 56.7837 30.1328 56.1118 30.6445C55.4399 31.1567 55.104 31.8608 55.104 32.7563Z" fill="white"/>
<path d="M75.9355 47.3002V39.2363H82.6553V19.8442L76.5596 20.0844V12.0204L87.3115 11.7324C88.7515 11.7006 89.8628 12.0683 90.6475 12.8364C91.4312 13.6044 91.8232 14.7084 91.8232 16.1484V39.2363H98.5913V47.3002H75.9355Z" fill="white"/>
<path d="M99.5034 35.0601C99.5034 32.8848 99.8789 30.9727 100.631 29.3242C101.383 27.6768 102.415 26.3564 103.727 25.3643C105.039 24.3726 106.527 23.6362 108.191 23.1562C109.855 22.6763 111.663 22.4365 113.615 22.4365C117.711 22.4365 121.079 23.4849 123.719 25.5801C126.359 27.6768 127.679 30.8364 127.679 35.0601C127.679 37.9727 127.015 40.4048 125.687 42.3569C124.359 44.3091 122.671 45.7007 120.623 46.5327C118.575 47.3647 116.239 47.7808 113.615 47.7808C109.487 47.7808 106.103 46.7329 103.463 44.6362C100.823 42.5415 99.5034 39.3486 99.5034 35.0601ZM108.671 35.0601C108.671 38.1646 110.319 39.7163 113.615 39.7163C116.847 39.7163 118.463 38.1646 118.463 35.0601C118.463 32.0205 116.847 30.5005 113.615 30.5005C110.319 30.5005 108.671 32.0205 108.671 35.0601Z" fill="white"/>
<path d="M158.543 47.3003H149.375V46.6284L151.151 41.6362H148.896C148.062 43.5562 146.982 45.061 145.655 46.1489C144.327 47.2368 142.271 47.7808 139.487 47.7808C136.095 47.7808 133.535 46.5728 131.807 44.1567C130.079 41.7407 129.215 38.7085 129.215 35.0601C129.215 31.4443 130.079 28.4365 131.807 26.0361C133.535 23.6362 136.095 22.4365 139.487 22.4365C140.959 22.4365 142.247 22.6045 143.352 22.9404C144.455 23.2764 145.359 23.7646 146.063 24.4043C146.767 25.0449 147.318 25.6689 147.719 26.2764C148.119 26.8848 148.511 27.6367 148.896 28.5322H151.151L149.375 23.5884V12.0205H158.543V47.3003ZM149.375 35.0601C149.375 33.4604 148.959 32.3003 148.127 31.5801C147.295 30.8604 145.919 30.5005 143.999 30.5005C142.047 30.5005 140.623 30.8604 139.728 31.5801C138.831 32.3003 138.383 33.4604 138.383 35.0601C138.383 36.6606 138.831 37.8369 139.728 38.5884C140.623 39.3403 142.047 39.7163 143.999 39.7163C145.919 39.7163 147.295 39.3486 148.127 38.6123C148.959 37.8765 149.375 36.6924 149.375 35.0601Z" fill="white"/>
<path d="M161.759 47.3003V39.2363H168.479V30.7402L162.383 30.9805V22.9165L173.039 22.4365C174.511 22.3726 175.655 22.7407 176.471 23.5405C177.287 24.3403 177.695 25.4927 177.695 26.9961V39.2363H184.463V47.3003H161.759ZM172.463 20.8521C169.358 20.8521 167.807 19.5405 167.807 16.9165C167.807 14.293 169.358 12.9805 172.463 12.9805C173.967 12.9805 175.151 13.3086 176.015 13.9644C176.879 14.6206 177.312 15.6045 177.312 16.9165C177.312 19.5405 175.695 20.8521 172.463 20.8521Z" fill="white"/>
<path d="M214.75 22.9165V56.6128H205.582V46.6284L207.358 41.6362H205.103C204.27 43.5562 203.189 45.061 201.862 46.1489C200.534 47.2368 198.462 47.7808 195.646 47.7808C192.286 47.7808 189.742 46.5806 188.015 44.1802C186.286 41.7803 185.422 38.7563 185.422 35.1084C185.422 31.4927 186.286 28.4766 188.015 26.0601C189.742 23.6445 192.286 22.4365 195.646 22.4365C197.598 22.4365 199.246 22.7646 200.59 23.4204C201.935 24.0767 202.886 24.7881 203.446 25.5562C204.006 26.3242 204.558 27.3164 205.103 28.5322H207.358L205.582 23.5884V22.9165H214.75ZM205.582 35.1084C205.582 33.4761 205.166 32.3003 204.334 31.5801C203.502 30.8604 202.126 30.5005 200.206 30.5005C198.254 30.5005 196.83 30.8604 195.935 31.5801C195.038 32.3003 194.59 33.4761 194.59 35.1084C194.59 36.7402 195.038 37.9165 195.935 38.6362C196.83 39.3564 198.254 39.7163 200.206 39.7163C202.126 39.7163 203.502 39.3647 204.334 38.6602C205.166 37.957 205.582 36.7725 205.582 35.1084Z" fill="white"/>
<path d="M254.235 2.50004C240.124 2.45069 223.722 49.0252 233.98 57.3085C244.745 66.0018 289.586 36.3236 286.065 23.9468C282.444 11.2173 225.889 10.549 222.065 22.9256C218.316 35.0588 263.355 65.8528 274.15 57.3085C284.353 49.2329 268.346 2.54939 254.235 2.50004Z" stroke="white" stroke-width="5" stroke-miterlimit="10"/>
<path d="M246.625 27.3574H244.375C244.168 27.3574 244 27.5252 244 27.7321V40.9601C244 41.167 244.168 41.3347 244.375 41.3347H246.625C246.832 41.3347 247 41.167 247 40.9601V27.7321C247 27.5252 246.832 27.3574 246.625 27.3574Z" fill="white"/>
<path d="M250.995 31.4114H248.728C248.526 31.4114 248.362 31.5754 248.362 31.7777V36.9146C248.362 37.1169 248.526 37.2809 248.728 37.2809H250.995C251.198 37.2809 251.362 37.1169 251.362 36.9146V31.7777C251.362 31.5754 251.198 31.4114 250.995 31.4114Z" fill="white"/>
<path d="M255.372 28.6008H253.107C252.904 28.6008 252.74 28.7653 252.74 28.9682V39.7241C252.74 39.9269 252.904 40.0914 253.107 40.0914H255.372C255.575 40.0914 255.74 39.9269 255.74 39.7241V28.9682C255.74 28.7653 255.575 28.6008 255.372 28.6008Z" fill="white"/>
<path d="M260.02 25H257.751C257.549 25 257.386 25.1635 257.386 25.3653V43.327C257.386 43.5288 257.549 43.6923 257.751 43.6923H260.02C260.222 43.6923 260.386 43.5288 260.386 43.327V25.3653C260.386 25.1635 260.222 25 260.02 25Z" fill="white"/>
<path d="M264.453 31.251H262.186C261.984 31.251 261.819 31.4151 261.819 31.6177V37.0744C261.819 37.2769 261.984 37.4411 262.186 37.4411H264.453C264.655 37.4411 264.819 37.2769 264.819 37.0744V31.6177C264.819 31.4151 264.655 31.251 264.453 31.251Z" fill="white"/>
</g>
<defs>
<clipPath id="clip0_160_174">
<rect width="288.761" height="67.1245" fill="white"/>
</clipPath>
</defs>
</svg>
